<svg width="647" height="540" viewBox="0 0 647 540" fill="none" xmlns="http://www.w3.org/2000/svg">
<path d="M312.8 129.456L256.6 149.3L265.172 222.88L312.8 249L360.428 222.88L369 149.3L312.8 129.456Z" fill="#DD0031"/>
<path d="M312.8 129.456V142.725V142.666V203.215V249L360.428 222.88L369 149.3L312.8 129.456Z" fill="#C3002F"/>
<path d="M312.8 142.666L277.667 220.668H290.767L297.829 203.215H327.65L334.713 220.668H347.812L312.8 142.666ZM323.062 192.456H302.538L312.8 168.009L323.062 192.456Z" fill="white"/>
<path d="M301 367.933L308.816 447.557L343.888 458.058L379.184 447.557L387 367.933H301ZM370.024 393.663H328.86L329.779 403.6H369.106L366.06 433.454L344.134 438.886V438.946H343.888L321.783 433.454L320.44 418.206H331.122L331.906 425.87L343.888 428.787L355.915 425.87L357.258 413.357H319.88L317.013 384.067H371.009L370.024 393.663Z" fill="#E34C26"/>
<g clip-path="url(#clip0_0_1)">
<path d="M504 60.458V106.958H606.003V13.9551H504V60.458ZM586.201 56.7525C588.791 57.3425 590.767 58.3916 592.581 60.1034C593.521 61.0189 594.912 62.6871 595.025 63.0852C595.057 63.2015 590.622 65.9188 587.933 67.4402C587.838 67.4984 587.447 67.1162 587.009 66.5248C585.697 64.781 584.322 64.0298 582.216 63.8975C579.125 63.7057 577.116 65.1821 577.148 67.6466C577.148 68.3702 577.26 68.7975 577.585 69.3903C578.266 70.6749 579.529 71.4422 583.495 73.0086C590.797 75.8713 593.921 77.7603 595.862 80.4486C598.03 83.445 598.517 88.2287 597.045 91.7859C595.425 95.6541 591.411 98.2814 585.761 99.1533C584.013 99.4337 579.867 99.3901 577.99 99.0806C573.894 98.4165 570.008 96.571 567.611 94.1501C566.671 93.2056 564.843 90.7397 564.956 90.5609C565.004 90.5028 565.426 90.2659 565.896 90.0145L569.685 88.0238L572.617 86.4733L573.232 87.3016C574.09 88.4975 575.969 90.1352 577.102 90.6815C580.357 92.2465 584.825 92.0242 587.026 90.2238C587.967 89.442 588.354 88.6297 588.354 87.4338C588.354 86.3556 588.211 85.8833 587.594 85.0725C586.8 84.0407 585.181 83.1689 580.581 81.3525C575.319 79.2861 573.052 78.0016 570.981 75.9643C569.782 74.7829 568.649 72.8938 568.179 71.3143C567.79 70.0007 567.693 66.7079 568 65.3797C569.084 60.7297 572.922 57.511 578.46 56.552C580.258 56.2425 584.437 56.3602 586.199 56.7583L586.201 56.7525ZM562.255 60.6324L562.287 64.4395H549.011V98.835H539.62V64.4395H526.344V60.705L526.456 56.8688C526.504 56.8106 534.584 56.7816 544.379 56.7961L562.205 56.8397L562.255 60.6324Z" fill="#007ACC"/>
</g>
<path d="M90 303L98.9068 388.035L139 399.25L179.093 388.035L188 303H90ZM169.906 320.188L168.681 330.35L139.255 340.941L139.179 340.963H167.634L164.368 372.459L139.306 378.625L114.092 372.352L112.458 356.475H124.938L125.755 364.703L139.179 367.561L153.139 364.252L154.083 351.018L111.642 350.91V350.889L111.591 350.91L110.672 340.963L139.281 330.93L140.94 330.35H109.574L108.094 320.188H169.906Z" fill="#264DE4"/>
<path d="M437.967 288.544C435.986 282.83 435.415 276.798 436.558 270.59C437.053 268.015 437.815 265.546 438.653 263.042C438.653 263.042 443.91 247.063 461.701 239.761C461.701 239.761 467.834 236.763 477.053 236.551C477.053 236.551 475.796 235.423 474.996 234.929C470.653 232.248 464.177 231.366 460.253 235.14C459.072 236.269 458.082 237.504 456.977 238.632C455.72 239.902 454.196 240.961 452.443 241.56C450.92 242.089 449.396 241.983 447.834 242.23C446.234 242.477 444.596 243.006 443.301 243.959C441.891 245.017 441.32 246.428 441.167 248.05C441.015 249.32 441.053 250.625 440.977 251.895C440.786 255.634 439.491 256.692 436.596 258.774C435.377 259.62 434.348 260.749 433.586 261.948C431.301 265.687 434.958 269.567 435.148 273.341C435.186 274.117 435.11 274.893 434.805 275.634C434.501 276.446 433.891 276.975 433.396 277.645C432.71 278.527 432.253 279.585 432.443 280.678C432.634 281.772 433.243 282.795 433.815 283.747C434.92 285.44 436.291 286.957 437.739 288.403C437.815 288.403 437.891 288.474 437.967 288.544Z" fill="#E32286"/>
<path d="M510.653 302.089C519.415 298.562 523.148 292.46 523.148 292.46C531.339 282.125 528.558 271.225 528.558 271.225C523.339 281.737 518.577 284.629 518.577 284.629C531.415 266.534 518.653 255.599 518.653 255.599C523.872 265.899 516.939 278.456 516.939 278.456C511.11 289.814 502.843 293.871 502.843 293.871C512.063 295.458 518.843 289.708 518.843 289.708C505.624 302.936 491.301 302.301 491.301 302.301C497.32 308.544 506.348 308.015 506.348 308.015C494.539 310.59 483.453 306.957 474.348 299.938C472.634 298.632 470.996 297.222 469.472 295.705C469.472 295.705 468.101 294.364 467.834 294.012L467.796 293.976C467.605 300.502 474.958 306.569 474.958 306.569C465.739 303.042 461.51 295.387 461.51 295.387C461.51 295.387 455.301 285.581 459.796 274.4C464.291 263.218 477.891 260.819 477.891 260.819C489.129 265.864 498.653 267.451 498.653 267.451C518.729 270.555 517.586 261.454 517.586 261.454C517.777 253.624 505.015 245.299 505.015 245.299C482.272 229.673 461.701 239.761 461.701 239.761C443.91 247.063 438.653 263.042 438.653 263.042C437.815 265.546 437.053 268.015 436.558 270.59C434.615 281.066 437.548 290.978 443.91 299.796C453.815 313.483 469.891 318.209 469.891 318.209C493.701 325.687 509.967 314.682 509.967 314.682C524.939 305.158 527.948 294.153 527.948 294.153C515.872 302.901 510.653 302.089 510.653 302.089ZM492.063 250.625C493.205 250.625 494.12 251.472 494.12 252.53C494.12 253.588 493.205 254.435 492.063 254.435C490.92 254.435 490.005 253.588 490.005 252.53C490.005 251.472 490.92 250.625 492.063 250.625Z" fill="url(#paint0_linear_0_1)"/>
<path d="M517.548 261.419C517.739 253.588 504.977 245.264 504.977 245.264C482.234 229.673 461.662 239.761 461.662 239.761C443.872 247.063 438.615 263.042 438.615 263.042C437.586 265.758 436.672 269.92 436.672 269.92C435.567 275.14 436.062 279.973 436.062 279.973C436.52 284.594 437.624 287.698 437.624 287.698C438.767 291.013 439.301 292.036 439.301 292.036C439.262 291.931 439.072 291.155 439.072 291.155C439.072 291.155 437.472 284.029 438.958 277.186C438.958 277.186 440.253 270.061 445.51 264.558C445.51 264.558 454.043 253.306 469.929 257.715C469.929 257.715 473.358 258.844 474.539 259.408C475.72 259.938 477.777 260.749 477.777 260.749C489.015 265.793 498.539 267.38 498.539 267.38C518.691 270.52 517.548 261.419 517.548 261.419ZM492.062 254.47C490.92 254.47 490.005 253.624 490.005 252.565C490.005 251.507 490.92 250.661 492.062 250.661C493.205 250.661 494.12 251.507 494.12 252.565C494.12 253.624 493.205 254.47 492.062 254.47Z" fill="url(#paint1_radial_0_1)"/>
<path d="M479.034 247.239L466.043 243.5C465.967 243.5 465.586 243.324 464.901 243.5C464.901 243.5 457.243 245.299 458.577 249.179C458.577 249.179 459.377 251.613 461.548 253.976L475.834 253.341L479.034 247.239Z" fill="url(#paint2_linear_0_1)"/>
<path d="M74 50V143H175V50H74ZM128.964 122.532C128.964 131.583 123.192 135.714 114.783 135.714C107.186 135.714 102.79 132.102 100.535 127.721L108.268 123.424C109.756 125.853 111.108 127.908 114.377 127.908C117.489 127.908 119.473 126.787 119.473 122.407V92.7011H128.964V122.532ZM151.418 135.714C142.603 135.714 136.9 131.852 134.127 126.787L141.859 122.677C143.888 125.729 146.549 127.991 151.215 127.991C155.138 127.991 157.663 126.185 157.663 123.673C157.663 120.684 155.093 119.625 150.742 117.861L148.375 116.927C141.521 114.249 136.99 110.865 136.99 103.745C136.99 97.185 142.423 92.2029 150.877 92.2029C156.919 92.2029 161.248 94.1335 164.359 99.1987L156.964 103.558C155.341 100.88 153.583 99.8214 150.855 99.8214C148.082 99.8214 146.323 101.441 146.323 103.558C146.323 106.174 148.082 107.232 152.162 108.872L154.529 109.806C162.6 112.983 167.132 116.242 167.132 123.549C167.132 131.396 160.414 135.714 151.418 135.714Z" fill="#F7DF1E"/>
<defs>
<linearGradient id="paint0_linear_0_1" x1="447.071" y1="314.083" x2="490.627" y2="264.039" gradientUnits="userSpaceOnUse">
<stop stop-color="#E01D84"/>
<stop offset="0.401" stop-color="#DF1D85"/>
<stop offset="0.77" stop-color="#932C87"/>
<stop offset="1" stop-color="#5D2F88"/>
</linearGradient>
<radialGradient id="paint1_radial_0_1" cx="0" cy="0" r="1" gradientUnits="userSpaceOnUse" gradientTransform="translate(499.246 255) rotate(0.126685) scale(46.3171 35.8614)">
<stop stop-color="#E01D84"/>
<stop offset="0.139" stop-color="#DE1E85"/>
<stop offset="0.285" stop-color="#D62085"/>
<stop offset="0.434" stop-color="#C92386"/>
<stop offset="0.586" stop-color="#B72786"/>
<stop offset="0.739" stop-color="#9D2B87"/>
<stop offset="0.891" stop-color="#7C2E88"/>
<stop offset="1" stop-color="#5D2F88"/>
</radialGradient>
<linearGradient id="paint2_linear_0_1" x1="458.391" y1="248.698" x2="479.023" y2="248.698" gradientUnits="userSpaceOnUse">
<stop stop-color="#E01D84"/>
<stop offset="0.238" stop-color="#DA1E85"/>
<stop offset="0.658" stop-color="#C72085"/>
<stop offset="0.999" stop-color="#B52284"/>
</linearGradient>
<clipPath id="clip0_0_1">
<rect width="102" height="93" fill="white" transform="translate(504 15)"/>
</clipPath>
</defs>
</svg>
